<svg width="341" height="107" viewBox="0 0 341 107" fill="none" xmlns="http://www.w3.org/2000/svg">
<path d="M340.496 1.59054C340.546 1.04052 340.141 0.554108 339.591 0.504107C339.041 0.454105 338.554 0.859448 338.504 1.40946L340.496 1.59054ZM0.792893 98.7929C0.402369 99.1834 0.402369 99.8166 0.792893 100.207L7.15685 106.571C7.54738 106.962 8.18054 106.962 8.57107 106.571C8.96159 106.181 8.96159 105.547 8.57107 105.157L2.91421 99.5L8.57107 93.8431C8.96159 93.4526 8.96159 92.8195 8.57107 92.4289C8.18054 92.0384 7.54738 92.0384 7.15685 92.4289L0.792893 98.7929ZM4.60479 100.417C5.1563 100.388 5.57976 99.9174 5.55062 99.3659C5.52147 98.8144 5.05075 98.3909 4.49923 98.4201L4.60479 100.417ZM10.4869 97.8066C9.94072 97.8887 9.5645 98.398 9.64656 98.9441C9.72861 99.4903 10.2379 99.8665 10.784 99.7844L10.4869 97.8066ZM16.857 98.607C17.3946 98.4802 17.7276 97.9417 17.6008 97.4042C17.474 96.8666 16.9355 96.5336 16.398 96.6604L16.857 98.607ZM22.2232 95.0656C21.6956 95.2291 21.4006 95.7894 21.5642 96.3169C21.7278 96.8444 22.288 97.1394 22.8155 96.9758L22.2232 95.0656ZM28.6547 94.9754C29.1721 94.7822 29.4348 94.2061 29.2416 93.6887C29.0483 93.1714 28.4722 92.9086 27.9548 93.1019L28.6547 94.9754ZM33.5928 90.8409C33.0849 91.0578 32.849 91.6454 33.0659 92.1533C33.2828 92.6612 33.8703 92.8971 34.3783 92.6802L33.5928 90.8409ZM39.9844 90.1586C40.484 89.9232 40.6982 89.3274 40.4628 88.8278C40.2274 88.3282 39.6315 88.114 39.1319 88.3494L39.9844 90.1586ZM44.5921 85.6755C44.0995 85.9252 43.9026 86.527 44.1524 87.0196C44.4021 87.5122 45.0039 87.7091 45.4965 87.4593L44.5921 85.6755ZM50.9347 84.6228C51.4217 84.3623 51.6052 83.7563 51.3447 83.2693C51.0841 82.7824 50.4781 82.5988 49.9912 82.8594L50.9347 84.6228ZM55.3421 79.9371C54.8594 80.2055 54.6857 80.8144 54.9542 81.2971C55.2226 81.7798 55.8314 81.9534 56.3141 81.685L55.3421 79.9371ZM61.6494 78.6765C62.1291 78.4028 62.296 77.7921 62.0223 77.3124C61.7485 76.8327 61.1378 76.6657 60.6581 76.9395L61.6494 78.6765ZM65.9521 73.8932C65.4742 74.17 65.3112 74.7818 65.588 75.2597C65.8649 75.7376 66.4767 75.9007 66.9546 75.6238L65.9521 73.8932ZM72.243 72.5504C72.7203 72.2725 72.882 71.6603 72.6041 71.1831C72.3262 70.7058 71.714 70.5441 71.2367 70.822L72.243 72.5504ZM76.5238 67.7475C76.0461 68.0246 75.8834 68.6365 76.1605 69.1142C76.4376 69.592 77.0495 69.7547 77.5272 69.4776L76.5238 67.7475ZM82.8189 66.4252C83.2982 66.1507 83.4641 65.5397 83.1896 65.0605C82.915 64.5812 82.304 64.4153 81.8248 64.6898L82.8189 66.4252ZM87.1504 61.6683C86.6687 61.9386 86.4974 62.5481 86.7676 63.0298C87.0379 63.5114 87.6474 63.6827 88.1291 63.4125L87.1504 61.6683ZM93.4677 60.458C93.9526 60.1937 94.1315 59.5863 93.8672 59.1013C93.6029 58.6164 92.9955 58.4375 92.5106 58.7019L93.4677 60.458ZM97.9148 55.8094C97.4258 56.066 97.2374 56.6705 97.494 57.1595C97.7507 57.6486 98.3551 57.837 98.8442 57.5803L97.9148 55.8094ZM104.267 54.7986C104.761 54.5514 104.961 53.9507 104.714 53.4568C104.466 52.9629 103.866 52.763 103.372 53.0102L104.267 54.7986ZM108.889 50.3242C108.389 50.5601 108.176 51.1562 108.412 51.6555C108.648 52.1549 109.244 52.3684 109.743 52.1324L108.889 50.3242ZM115.28 49.6018C115.785 49.379 116.014 48.7887 115.791 48.2834C115.568 47.778 114.978 47.549 114.473 47.7719L115.28 49.6018ZM120.129 45.3751C119.617 45.5828 119.371 46.1661 119.578 46.6778C119.786 47.1895 120.369 47.4359 120.881 47.2281L120.129 45.3751ZM126.551 45.0331C127.069 44.8425 127.335 44.2677 127.144 43.7494C126.953 43.2311 126.379 42.9654 125.86 43.1561L126.551 45.0331ZM131.669 41.1382C131.144 41.3096 130.858 41.8742 131.029 42.3992C131.201 42.9242 131.765 43.2108 132.29 43.0394L131.669 41.1382ZM138.099 41.2699C138.63 41.1198 138.939 40.5673 138.789 40.0358C138.639 39.5043 138.087 39.1951 137.555 39.3452L138.099 41.2699ZM143.514 37.8009C142.977 37.9275 142.643 38.466 142.77 39.0035C142.897 39.5411 143.435 39.8742 143.973 39.7475L143.514 37.8009ZM149.906 38.4944C150.449 38.3931 150.807 37.8709 150.706 37.328C150.605 36.7851 150.083 36.427 149.54 36.5283L149.906 38.4944ZM155.623 35.549C155.075 35.623 154.692 36.1267 154.766 36.674C154.84 37.2213 155.343 37.605 155.891 37.531L155.623 35.549ZM161.914 36.8754C162.464 36.8302 162.874 36.3473 162.828 35.7968C162.783 35.2464 162.3 34.8369 161.75 34.8821L161.914 36.8754ZM167.905 34.543C167.353 34.5584 166.918 35.0183 166.933 35.5704C166.948 36.1225 167.408 36.5576 167.961 36.5423L167.905 34.543ZM173.9 36.5316C174.452 36.5435 174.909 36.1056 174.921 35.5534C174.933 35.0012 174.495 34.544 173.943 34.5321L173.9 36.5316ZM179.854 34.7758C179.303 34.7428 178.829 35.163 178.796 35.7143C178.763 36.2655 179.183 36.7392 179.734 36.7723L179.854 34.7758ZM185.565 37.2189C186.115 37.2698 186.602 36.8652 186.653 36.3152C186.704 35.7653 186.299 35.2783 185.749 35.2274L185.565 37.2189ZM191.624 35.8533C191.076 35.7875 190.578 36.1788 190.512 36.7272C190.447 37.2755 190.838 37.7733 191.386 37.839L191.624 35.8533ZM197.192 38.6033C197.739 38.6813 198.245 38.3013 198.324 37.7546C198.402 37.2078 198.022 36.7013 197.475 36.6233L197.192 38.6033ZM203.298 37.5108C202.753 37.4228 202.239 37.7934 202.151 38.3386C202.063 38.8838 202.434 39.3972 202.979 39.4852L203.298 37.5108ZM208.758 40.4636C209.302 40.5596 209.82 40.1965 209.916 39.6526C210.012 39.1088 209.649 38.59 209.105 38.494L208.758 40.4636ZM214.899 39.5518C214.356 39.4498 213.833 39.807 213.731 40.3498C213.629 40.8925 213.986 41.4153 214.529 41.5174L214.899 39.5518ZM220.294 42.6271C220.836 42.7335 221.361 42.3804 221.468 41.8384C221.574 41.2965 221.221 40.7709 220.679 40.6645L220.294 42.6271ZM226.448 41.8131C225.907 41.7041 225.379 42.0547 225.27 42.5961C225.161 43.1375 225.512 43.6648 226.053 43.7738L226.448 41.8131ZM231.809 44.9393C232.35 45.0492 232.878 44.6996 232.988 44.1583C233.098 43.6171 232.748 43.0892 232.207 42.9793L231.809 44.9393ZM237.968 44.1467C237.426 44.0375 236.899 44.3879 236.79 44.9293C236.681 45.4707 237.031 45.998 237.572 46.1072L237.968 44.1467ZM243.344 47.2584C243.886 47.365 244.412 47.0121 244.518 46.4702C244.625 45.9283 244.272 45.4026 243.73 45.296L243.344 47.2584ZM249.496 46.4073C248.953 46.3052 248.43 46.6624 248.328 47.2052C248.226 47.7479 248.583 48.2707 249.126 48.3728L249.496 46.4073ZM254.921 49.429C255.465 49.5245 255.983 49.161 256.079 48.6171C256.174 48.0731 255.811 47.5547 255.267 47.4592L254.921 49.429ZM261.046 48.4276C260.5 48.341 259.988 48.713 259.901 49.2584C259.815 49.8039 260.187 50.3162 260.732 50.4028L261.046 48.4276ZM266.564 51.2669C267.111 51.3417 267.615 50.9588 267.69 50.4116C267.765 49.8644 267.382 49.3602 266.835 49.2853L266.564 51.2669ZM272.635 50.0007C272.086 49.941 271.593 50.3376 271.533 50.8867C271.473 51.4357 271.87 51.9292 272.419 51.989L272.635 50.0007ZM278.301 52.5302C278.851 52.5709 279.331 52.1574 279.372 51.6066C279.412 51.0558 278.999 50.5763 278.448 50.5356L278.301 52.5302ZM284.27 50.8434C283.718 50.8267 283.257 51.2607 283.24 51.8127C283.224 52.3648 283.658 52.8258 284.21 52.8425L284.27 50.8434ZM290.141 52.8658C290.693 52.8524 291.13 52.3939 291.116 51.8418C291.103 51.2897 290.644 50.853 290.092 50.8664L290.141 52.8658ZM295.894 50.5338C295.344 50.585 294.94 51.0722 294.991 51.6221C295.042 52.1721 295.529 52.5764 296.079 52.5252L295.894 50.5338ZM301.991 51.7287C302.535 51.6308 302.896 51.1109 302.798 50.5673C302.7 50.0238 302.18 49.6625 301.637 49.7604L301.991 51.7287ZM307.257 48.4498C306.727 48.6044 306.422 49.1595 306.577 49.6898C306.731 50.22 307.286 50.5245 307.816 50.3699L307.257 48.4498ZM313.458 48.3394C313.965 48.1189 314.196 47.5296 313.976 47.0233C313.755 46.5169 313.166 46.2852 312.66 46.5058L313.458 48.3394ZM317.725 43.8521C317.256 44.1442 317.113 44.761 317.405 45.2297C317.697 45.6984 318.314 45.8417 318.782 45.5496L317.725 43.8521ZM323.632 41.9711C324.049 41.609 324.094 40.9774 323.731 40.5603C323.369 40.1433 322.738 40.0988 322.321 40.4609L323.632 41.9711ZM326.326 36.3873C325.97 36.8099 326.024 37.4407 326.447 37.7962C326.87 38.1518 327.501 38.0974 327.856 37.6748L326.326 36.3873ZM331.374 32.8149C331.665 32.3459 331.522 31.7293 331.053 31.4376C330.584 31.1458 329.967 31.2895 329.675 31.7585L331.374 32.8149ZM332.391 26.7022C332.16 27.2036 332.378 27.7978 332.88 28.0295C333.381 28.2612 333.975 28.0426 334.207 27.5413L332.391 26.7022ZM336.423 21.9882C336.601 21.4657 336.323 20.8972 335.8 20.7184C335.277 20.5397 334.709 20.8184 334.53 21.341L336.423 21.9882ZM336.167 15.7632C336.033 16.2991 336.36 16.8417 336.896 16.9752C337.431 17.1087 337.974 16.7825 338.108 16.2466L336.167 15.7632ZM339.332 10.4485C339.428 9.90456 339.065 9.38597 338.521 9.29017C337.977 9.19437 337.458 9.55764 337.363 10.1016L339.332 10.4485ZM338.194 4.39331C338.13 4.94184 338.522 5.43866 339.071 5.50299C339.619 5.56732 340.116 5.17481 340.181 4.62628L338.194 4.39331ZM1.5 100.5C2.53407 100.5 3.56897 100.472 4.60479 100.417L4.49923 98.4201C3.49768 98.473 2.49799 98.5 1.5 98.5V100.5ZM10.784 99.7844C12.8041 99.4809 14.8282 99.0855 16.857 98.607L16.398 96.6604C14.4187 97.1272 12.4487 97.5119 10.4869 97.8066L10.784 99.7844ZM22.8155 96.9758C24.7562 96.3741 26.7024 95.7047 28.6547 94.9754L27.9548 93.1019C26.0348 93.8191 24.1246 94.476 22.2232 95.0656L22.8155 96.9758ZM34.3783 92.6802C36.2402 91.8851 38.1088 91.0425 39.9844 90.1586L39.1319 88.3494C37.2761 89.2239 35.43 90.0564 33.5928 90.8409L34.3783 92.6802ZM45.4965 87.4593C47.3017 86.5442 49.1143 85.5969 50.9347 84.6228L49.9912 82.8594C48.1819 83.8274 46.3825 84.7678 44.5921 85.6755L45.4965 87.4593ZM56.3141 81.685C58.0843 80.7006 59.8626 79.6962 61.6494 78.6765L60.6581 76.9395C58.8763 77.9563 57.1046 78.957 55.3421 79.9371L56.3141 81.685ZM66.9546 75.6238C68.7085 74.6079 70.4714 73.5818 72.243 72.5504L71.2367 70.822C69.465 71.8535 67.7039 72.8785 65.9521 73.8932L66.9546 75.6238ZM77.5272 69.4776C79.2819 68.4599 81.0455 67.4412 82.8189 66.4252L81.8248 64.6898C80.0473 65.7081 78.2804 66.7287 76.5238 67.7475L77.5272 69.4776ZM88.1291 63.4125C89.8987 62.4195 91.6781 61.4334 93.4677 60.458L92.5106 58.7019C90.7127 59.6817 88.9261 60.6719 87.1504 61.6683L88.1291 63.4125ZM98.8442 57.5803C100.641 56.6373 102.449 55.7088 104.267 54.7986L103.372 53.0102C101.541 53.9266 99.7221 54.861 97.9148 55.8094L98.8442 57.5803ZM109.743 52.1324C111.577 51.2656 113.423 50.4208 115.28 49.6018L114.473 47.7719C112.599 48.5983 110.738 49.4504 108.889 50.3242L109.743 52.1324ZM120.881 47.2281C122.759 46.4656 124.649 45.7327 126.551 45.0331L125.86 43.1561C123.936 43.8637 122.026 44.6047 120.129 45.3751L120.881 47.2281ZM132.29 43.0394C134.214 42.4114 136.15 41.8203 138.099 41.2699L137.555 39.3452C135.579 39.9032 133.617 40.5022 131.669 41.1382L132.29 43.0394ZM143.973 39.7475C145.937 39.2847 147.915 38.8657 149.906 38.4944L149.54 36.5283C147.516 36.9056 145.508 37.3311 143.514 37.8009L143.973 39.7475ZM155.891 37.531C157.884 37.2614 159.892 37.0417 161.914 36.8754L161.75 34.8821C159.692 35.0513 157.65 35.2748 155.623 35.549L155.891 37.531ZM167.961 36.5423C168.97 36.5142 169.983 36.5 171 36.5V34.5C169.965 34.5 168.933 34.5145 167.905 34.543L167.961 36.5423ZM171 36.5C171.962 36.5 172.928 36.5107 173.9 36.5316L173.943 34.5321C172.958 34.5109 171.977 34.5 171 34.5V36.5ZM179.734 36.7723C181.663 36.8878 183.608 37.038 185.565 37.2189L185.749 35.2274C183.772 35.0447 181.806 34.8928 179.854 34.7758L179.734 36.7723ZM191.386 37.839C193.312 38.0698 195.248 38.3258 197.192 38.6033L197.475 36.6233C195.517 36.344 193.566 36.086 191.624 35.8533L191.386 37.839ZM202.979 39.4852C204.9 39.7955 206.827 40.1228 208.758 40.4636L209.105 38.494C207.166 38.1517 205.23 37.8228 203.298 37.5108L202.979 39.4852ZM214.529 41.5174C216.45 41.8786 218.372 42.2497 220.294 42.6271L220.679 40.6645C218.753 40.2863 216.826 39.9143 214.899 39.5518L214.529 41.5174ZM226.053 43.7738C227.975 44.1606 229.894 44.5503 231.809 44.9393L232.207 42.9793C230.292 42.5903 228.372 42.2004 226.448 41.8131L226.053 43.7738ZM237.572 46.1072C239.503 46.4965 241.428 46.8814 243.344 47.2584L243.73 45.296C241.818 44.9198 239.896 44.5355 237.968 44.1467L237.572 46.1072ZM249.126 48.3728C251.069 48.7384 253.001 49.0918 254.921 49.429L255.267 47.4592C253.356 47.1236 251.432 46.7717 249.496 46.4073L249.126 48.3728ZM260.732 50.4028C262.693 50.714 264.637 51.0035 266.564 51.2669L266.835 49.2853C264.924 49.0241 262.994 48.7367 261.046 48.4276L260.732 50.4028ZM272.419 51.989C274.403 52.205 276.365 52.3871 278.301 52.5302L278.448 50.5356C276.537 50.3944 274.599 50.2145 272.635 50.0007L272.419 51.989ZM284.21 52.8425C286.22 52.9032 288.198 52.9132 290.141 52.8658L290.092 50.8664C288.189 50.9128 286.248 50.9032 284.27 50.8434L284.21 52.8425ZM296.079 52.5252C298.096 52.3376 300.069 52.0749 301.991 51.7287L301.637 49.7604C299.775 50.0956 297.86 50.351 295.894 50.5338L296.079 52.5252ZM307.816 50.3699C309.762 49.8029 311.644 49.1296 313.458 48.3394L312.66 46.5058C310.929 47.2597 309.126 47.9048 307.257 48.4498L307.816 50.3699ZM318.782 45.5496C320.481 44.4915 322.099 43.3021 323.632 41.9711L322.321 40.4609C320.869 41.7213 319.336 42.8484 317.725 43.8521L318.782 45.5496ZM327.856 37.6748C329.11 36.1842 330.284 34.5667 331.374 32.8149L329.675 31.7585C328.634 33.4319 327.516 34.9719 326.326 36.3873L327.856 37.6748ZM334.207 27.5413C335.013 25.7976 335.752 23.9482 336.423 21.9882L334.53 21.341C333.881 23.2394 333.167 25.0245 332.391 26.7022L334.207 27.5413ZM338.108 16.2466C338.568 14.3986 338.977 12.4669 339.332 10.4485L337.363 10.1016C337.015 12.0768 336.615 13.9629 336.167 15.7632L338.108 16.2466ZM340.181 4.62628C340.297 3.6331 340.402 2.62128 340.496 1.59054L338.504 1.40946C338.412 2.42337 338.309 3.41788 338.194 4.39331L340.181 4.62628Z" fill="#262766" fill-opacity="0.25"/>
</svg>
