<svg width="32" height="34" viewBox="0 0 32 34" fill="none" xmlns="http://www.w3.org/2000/svg">
<path d="M31.5586 0.539062V6.9375H17.9688C10.1758 6.9375 7.93359 10.7656 7.93359 15.4961V33.2422C2.71094 29.4961 0.414062 26.1055 0.414062 16.7266C0.414062 4.14844 8.58073 0.69401 12.6641 0.539062H31.5586Z" fill="#FDFDFF"/>
<path fill-rule="evenodd" clip-rule="evenodd" d="M25.4316 20.1992C25.4316 19.9576 25.2357 19.7617 24.9941 19.7617H25.4316V20.1992ZM25.4316 26.4609C25.4316 26.7026 25.2357 26.8984 24.9941 26.8984C25.2357 26.8984 25.4316 26.7026 25.4316 26.4609Z" fill="#FDFDFF"/>
<path d="M31.5586 12.9805H15.1523V19.7617H24.9941H25.4316V20.1992V26.4609C25.4316 26.7026 25.2357 26.8984 24.9941 26.8984H15.1523V33.4062H31.5586V12.9805Z" fill="#FDFDFF"/>
</svg>
