<svg width="147" height="40" viewBox="0 0 147 40" fill="none" xmlns="http://www.w3.org/2000/svg">
<g clip-path="url(#clip0_66_113)">
<path d="M1.02211 39.9743C0.933728 39.9444 0.863929 39.8776 0.761587 39.7246C0.428373 39.2267 -0.0715669 37.8295 0.00856661 37.6203C0.0328089 37.557 0.376464 37.3889 1.14196 37.066C2.46417 36.5084 3.34216 35.9564 4.13896 35.182C4.66956 34.6664 4.9316 34.3135 5.24994 33.686L5.50901 33.1754L5.54568 23.2144C5.59107 10.8836 5.57187 8.44556 5.42014 7.25737C5.32602 6.52038 5.21357 6.26772 4.81786 5.90417C4.31397 5.44123 3.98237 5.28074 2.89664 4.97433C2.25381 4.79291 2.20925 4.74114 2.24391 4.2161C2.27437 3.7547 2.32891 3.46465 2.38964 3.4413C2.41752 3.43114 2.62178 3.40219 2.84354 3.37828C3.34362 3.32437 12.9023 3.32121 13.6588 3.37445C14.059 3.40281 14.1452 3.41874 14.1839 3.47177C14.3107 3.6455 14.4313 4.36746 14.371 4.59176C14.3396 4.70896 14.3116 4.73532 14.1356 4.81446C14.0258 4.86381 13.6999 4.96726 13.4114 5.04427C12.7832 5.21199 12.5939 5.28384 12.3386 5.45146C12.1028 5.60635 11.3644 6.33323 11.2868 6.48685C11.1286 6.80021 11.0762 9.57823 10.9894 22.2558C10.9247 31.7051 10.8895 32.2704 10.2807 33.6316C9.9183 34.442 9.52884 35.0794 8.89496 35.8995C8.48761 36.4265 8.17162 36.7271 7.48125 37.2445C5.9136 38.4194 4.4517 39.1261 2.28101 39.7585C1.48108 39.9915 1.21135 40.0381 1.02211 39.9743ZM20.9059 32.432C19.6149 32.2734 18.497 31.7148 17.5237 30.7418C16.874 30.0924 16.4415 29.4159 16.1841 28.6464C15.8862 27.7559 15.9067 26.4364 16.2356 25.3269C16.4943 24.4544 16.7959 23.9416 17.4224 23.309C18.1028 22.622 18.8334 22.1244 20.0092 21.5472C21.6749 20.7295 23.5208 20.0786 27.0943 19.0487C27.9415 18.8046 28.0433 18.7675 28.0708 18.6932C28.0876 18.6475 28.1044 17.9959 28.108 17.2451C28.1135 16.0618 28.1058 15.8248 28.05 15.4653C27.8253 14.0183 27.2765 13.2883 26.2127 13.022C25.7716 12.9115 24.9044 12.9115 24.4634 13.0219C23.5757 13.2442 22.8226 13.7888 22.3039 14.5838C21.9394 15.1423 21.7742 15.5362 21.4701 16.5712C21.2841 17.2042 21.1688 17.4577 21.0155 17.5707C20.9219 17.6397 20.8768 17.6425 19.8773 17.6425C18.6436 17.6425 18.7194 17.6641 18.2598 17.1802C17.7017 16.5926 17.1513 15.8502 16.8852 15.3261C16.7229 15.0067 16.7093 14.9609 16.7099 14.7386C16.7111 14.3424 16.8385 14.0811 17.2296 13.6727C18.3368 12.5164 20.517 11.3939 22.7339 10.8387C23.9828 10.5259 24.897 10.404 26.1904 10.378C27.2727 10.3562 27.8478 10.3908 28.649 10.526C30.416 10.8242 31.4042 11.3683 32.1112 12.4325C32.236 12.6203 32.4721 13.0509 32.6359 13.3892L32.9336 14.0044L32.9631 16.8948C33.0749 27.8734 33.0846 28.2449 33.2724 28.6767C33.3652 28.89 33.5627 29.1169 33.8088 29.2929C34.1127 29.5101 34.3598 29.5915 34.7194 29.5928C35.1128 29.5939 35.3696 29.5033 35.8027 29.2098C36.1055 29.0046 36.1633 28.9781 36.3083 28.9781C36.4397 28.9781 36.4982 28.9992 36.6045 29.0849C36.7801 29.2264 37.4437 30.0034 37.4343 30.0564C37.4207 30.1325 36.7619 30.8463 36.5152 31.0522C35.8066 31.6436 34.9401 32.0566 34.0104 32.2459C33.567 32.3363 32.7371 32.3706 32.3223 32.3157C31.7271 32.2369 31.1271 32.0409 30.7123 31.7896C30.0398 31.3822 29.0474 30.4565 28.6986 29.9112C28.5891 29.7401 28.4952 29.5945 28.4899 29.5876C28.4845 29.5812 28.1968 29.803 27.8503 30.0817C26.9315 30.8211 26.2234 31.2734 25.4242 31.6315C23.8838 32.3217 22.2972 32.6028 20.9059 32.432ZM24.8033 28.9408C25.9056 28.7612 26.7618 28.2906 27.7959 27.2962L28.1672 26.9391L28.1641 25.7295C28.1624 25.0643 28.1488 23.859 28.1339 23.0512C28.1034 21.396 28.0924 21.3138 27.9007 21.2952C27.718 21.2776 26.3377 21.6972 25.3036 22.0851C23.8453 22.6319 22.9875 23.1021 22.3763 23.6894C21.8861 24.1605 21.5904 24.6607 21.4331 25.2845C21.3664 25.549 21.3558 25.6818 21.3558 26.2479C21.3559 26.9972 21.3864 27.1586 21.6201 27.6476C21.7347 27.8874 21.8151 27.9957 22.0576 28.2374C22.4957 28.6739 23.0228 28.9287 23.6275 28.9962C23.928 29.0297 24.3911 29.0075 24.8033 28.9408ZM66.7611 32.4341C65.4883 32.278 64.5131 31.981 63.3637 31.3992C62.4294 30.9262 61.7198 30.4566 60.9839 29.8239C59.2674 28.3481 58.0002 26.1393 57.5049 23.7596C57.2265 22.4219 57.1841 21.0403 57.3801 19.6958C57.8962 16.1561 59.9307 13.1917 62.9388 11.5965C65.9404 10.0047 69.5621 9.97809 72.7107 11.5247C73.5924 11.9578 74.478 12.5673 75.2113 13.2454C76.4681 14.4078 77.5033 16.0256 78.0803 17.7289C78.9501 20.2969 78.8783 23.156 77.8778 25.7813C76.7235 28.8104 74.2524 31.0824 71.0567 32.0527C70.5302 32.2126 69.7667 32.3669 69.1741 32.4333C68.6065 32.4968 67.2765 32.4974 66.7611 32.4341ZM69.6895 29.5285C70.4506 29.3975 71.1924 29.012 71.746 28.4598C72.3156 27.8916 72.8452 26.8591 73.1023 25.8159C73.3036 24.9988 73.363 24.3468 73.3382 23.224C73.3128 22.068 73.2122 21.3283 72.9167 20.1251C71.9696 16.268 69.9691 13.7079 67.5755 13.2897C65.8629 12.9904 64.2105 13.9541 63.3121 15.7763C62.7281 16.9607 62.5719 17.8902 62.6545 19.6889C62.7501 21.7701 63.0057 23.05 63.662 24.733C64.5126 26.9141 65.7193 28.4341 67.2089 29.2008C67.6288 29.4169 68.0058 29.5439 68.3422 29.5825C68.6731 29.6205 69.3011 29.5954 69.6895 29.5285ZM88.9213 32.4506C88.5249 32.4151 88.4773 32.4052 86.8346 32.0181C85.4453 31.6906 84.47 31.4859 83.7149 31.3632C83.118 31.2661 82.6645 31.1562 82.6017 31.0933C82.4815 30.9728 82.3861 29.7238 82.3147 27.3366C82.2774 26.087 82.2931 25.2345 82.3572 25.026C82.4133 24.844 82.6231 24.7655 83.0577 24.764C83.3185 24.7629 83.4289 24.7772 83.5102 24.8213C83.6838 24.9158 83.9102 25.1954 84.2678 25.7567C84.8251 26.6315 85.2867 27.1866 86.0629 27.9153C87.1376 28.9243 87.8646 29.4035 88.8782 29.7709C89.604 30.0339 90.2282 30.15 90.9043 30.1477C91.8457 30.1439 92.7648 29.8248 93.271 29.3244C93.6845 28.9158 93.836 28.4985 93.836 27.7685C93.836 26.5184 93.292 25.8558 91.3527 24.7438C91.0777 24.5861 89.8981 23.972 88.7314 23.3793C85.426 21.6998 85.0058 21.4559 84.2234 20.7622C83.3267 19.9672 82.5997 18.8851 82.3711 18.0054C82.2772 17.6438 82.2284 16.4771 82.273 15.6605C82.3067 15.0448 82.3212 14.942 82.4153 14.6604C82.6311 14.0151 83.0766 13.2454 83.5498 12.7005C84.87 11.1799 87.2604 10.3349 90.0216 10.4126C90.9681 10.4394 91.4842 10.5282 93.1979 10.9598C94.0197 11.1667 94.0796 11.1769 94.4741 11.1763C94.7712 11.1758 95.029 11.1498 95.388 11.0839C96.3181 10.9133 96.5245 10.9253 96.6442 11.1572C96.8018 11.4625 96.9588 13.5446 96.9978 15.8454C97.0177 17.018 97.017 17.0568 96.9506 17.1156C96.7914 17.2577 96.0539 17.2859 95.791 17.1598C95.6133 17.0747 95.4387 16.8937 94.8249 16.1586C94.2076 15.4194 93.3684 14.5636 92.8875 14.183C91.7746 13.3021 90.7905 12.9146 89.424 12.8193C88.52 12.7563 88.0764 12.8386 87.5071 13.1746C87.0794 13.4271 86.7114 13.7948 86.5464 14.1347C86.2762 14.6914 86.3012 15.2285 86.6283 15.8901C87.0389 16.7207 87.6734 17.1533 90.9216 18.8179C94.0827 20.4379 95.1832 21.0965 96.1902 21.9714C97.4515 23.0673 98.0655 24.2951 98.1818 25.9541C98.2719 27.2407 97.8976 28.6994 97.2104 29.7384C96.935 30.1547 96.4092 30.6687 95.9572 30.9637C95.4797 31.2752 94.6833 31.6691 94.0724 31.8958C93.2602 32.1973 92.6194 32.3357 91.6631 32.4163C91.0671 32.4664 89.3395 32.4881 88.9213 32.4506ZM130.241 32.4495C129.83 32.4066 129.377 32.2518 128.603 31.8905C127.417 31.3369 126.494 30.4501 125.899 29.2915C125.571 28.652 125.535 28.4307 125.534 27.0541C125.533 25.9371 125.561 25.6235 125.695 25.2495C125.792 24.981 126.106 24.3344 126.25 24.1092C127.293 22.4767 129.388 21.2967 133.641 19.9452C134.123 19.792 135.207 19.4638 136.05 19.216C136.893 18.9682 137.587 18.7604 137.593 18.7543C137.631 18.7166 137.643 16.549 137.609 16.1566C137.521 15.1729 137.312 14.3333 137.059 13.941C136.782 13.5118 136.271 13.1779 135.652 13.0216C135.396 12.957 135.255 12.9447 134.794 12.9464C134.312 12.9476 134.2 12.9596 133.905 13.0388C132.778 13.341 131.974 14.0359 131.434 15.1747C131.219 15.6299 131.06 16.088 130.831 16.9152C130.664 17.5198 130.643 17.5718 130.562 17.5935C130.514 17.6064 130.024 17.6285 129.472 17.6425C128.266 17.6733 128.206 17.664 127.926 17.4075C127.297 16.832 126.314 15.3477 126.192 14.7914C126.15 14.599 126.193 14.3849 126.317 14.1694C126.447 13.9428 127.253 13.1569 127.663 12.8562C128.729 12.0755 130.08 11.4417 131.596 11.0109C133.028 10.6042 134.261 10.4154 135.725 10.3787C138.33 10.3134 140.081 10.8078 141.193 11.9223C141.634 12.3645 142.031 12.9977 142.233 13.5819C142.401 14.0679 142.462 16.1387 142.552 24.4677L142.598 28.6661L142.766 28.8172C143.636 29.5984 143.663 29.6157 144.039 29.6169C144.447 29.618 144.842 29.4871 145.296 29.1996C145.439 29.1096 145.613 29.0089 145.683 28.9757L145.81 28.9153L145.993 29.0575C146.094 29.1357 146.362 29.3864 146.588 29.6146L147 30.0294L146.933 30.1087C146.05 31.1549 145.301 31.6918 144.224 32.0513C143.688 32.2303 143.24 32.3125 142.673 32.3366C141.539 32.3846 140.667 32.1399 139.813 31.5348C139.086 31.0197 138.589 30.5334 138.244 29.9991C138.125 29.814 138.001 29.6525 137.969 29.6402C137.893 29.6112 137.718 29.7341 137.26 30.136C136.182 31.0833 134.341 31.9998 132.923 32.2949C132.22 32.4412 130.893 32.5177 130.241 32.4495ZM134.311 28.9399C135.123 28.8148 135.957 28.4211 136.765 27.781C137.031 27.5699 137.345 27.232 137.429 27.0662C137.607 26.7123 137.656 26.0513 137.656 24.0017C137.656 21.8738 137.605 21.3233 137.405 21.2949C137.22 21.2685 135.388 21.8333 134.432 22.2112C132.494 22.9767 131.381 23.8535 131.015 24.9024C130.811 25.4859 130.718 26.4132 130.809 26.953C130.943 27.7454 131.867 28.6887 132.745 28.9278C132.925 28.9768 133.467 29.017 133.759 29.003C133.873 28.998 134.121 28.9692 134.311 28.9399ZM40.5643 32.0333C39.8807 32.0183 39.2803 31.9905 39.2301 31.9715C39.1137 31.9271 39.0825 31.7621 39.0824 31.1907L39.0824 30.7765L39.2669 30.6659C39.3684 30.605 39.7098 30.453 40.0257 30.328C40.3443 30.2018 40.6728 30.047 40.7636 29.98C41.0736 29.7513 41.2593 29.3657 41.3571 28.7475C41.4807 27.9666 41.4883 27.5931 41.5036 21.5372L41.5187 15.5475L41.3932 15.394C40.9554 14.8587 40.5118 14.532 39.605 14.0771C38.919 13.733 38.7674 13.6376 38.7008 13.5085C38.5982 13.3098 38.6591 12.8813 38.8143 12.7094C38.9064 12.6074 39.3005 12.4445 40.4621 12.028C42.5218 11.2896 44.7647 10.5903 44.99 10.6163C45.2379 10.6449 45.6367 11.8537 46.2309 14.378C46.3365 14.8266 46.4513 15.1372 46.5115 15.1372C46.5307 15.1372 46.6529 14.9932 46.7832 14.8172C47.7155 13.5579 49.0886 12.1952 50.1658 11.4602C50.9509 10.9246 52.3018 10.4277 53.1063 10.3787C54.383 10.3008 55.6893 11.0366 56.2514 12.1503C56.3984 12.4415 56.4593 12.7321 56.4609 13.15C56.463 13.7023 56.3611 14.1243 56.0853 14.7052C55.772 15.3653 55.1356 16.1025 54.5289 16.5083C54.1342 16.7723 53.8852 16.8695 53.5483 16.8912C53.0368 16.924 52.6612 16.7206 52.2801 16.2043C51.7327 15.4629 51.4819 15.15 51.2728 14.9476C50.9802 14.6645 50.8777 14.6343 50.3889 14.687C48.9792 14.8391 47.8175 15.7241 46.6722 17.5185L46.5088 17.7743L46.5257 22.7024C46.5427 27.6593 46.5518 28.0202 46.6699 28.4287C46.7284 28.6309 46.9975 29.06 47.2124 29.2935C47.5151 29.6227 47.8272 29.8037 48.8173 30.2247C49.7364 30.6156 49.8262 30.6807 49.8262 30.9574C49.8262 31.1689 49.7324 31.5971 49.6301 31.8533L49.5429 32.0715L45.675 32.0665C43.5476 32.0626 41.2479 32.0483 40.5643 32.0333ZM101.102 31.8209C101.067 31.6714 101.044 31.4294 101.044 31.2212C101.045 30.6942 101.101 30.6322 101.824 30.3571C102.446 30.1207 102.818 29.9131 103.1 29.6448C103.398 29.3613 103.504 29.1477 103.577 28.6829C103.708 27.8568 103.711 27.5773 103.725 17.002L103.738 6.68455L103.479 6.35284C103.193 5.98694 102.792 5.65603 102.304 5.38236C102.152 5.29731 101.908 5.16081 101.761 5.079C101.38 4.86675 101.338 4.81297 101.339 4.54339C101.34 4.11405 101.393 4.07672 104.373 2.43501C106.031 1.52157 107.213 0.913614 107.723 0.711926C107.997 0.60347 108.075 0.587515 108.332 0.587515H108.626L108.647 0.976329C108.676 1.51747 108.805 16.2765 108.805 19.0885C108.805 19.9114 108.818 20.4949 108.836 20.4882C108.934 20.452 113.179 16.5202 114.125 15.59C114.893 14.8352 115.076 14.6029 115.185 14.2488C115.272 13.967 115.272 13.8536 115.185 13.5718C115.097 13.2863 114.933 13.0432 114.493 12.5452C114.288 12.3131 114.105 12.07 114.055 11.9608C113.972 11.7819 113.969 11.7543 113.99 11.3252C114.001 11.0785 114.015 10.8724 114.021 10.8672C114.027 10.8623 115.769 10.8471 117.893 10.834C122.584 10.8048 122.75 10.8137 122.897 11.0996C122.971 11.2427 122.971 11.4647 122.896 11.6097C122.736 11.9195 122.434 12.1488 121.556 12.6276C119.616 13.685 118.711 14.3432 116.894 16.0159C115.976 16.8601 113.945 18.8058 113.945 18.8399C113.945 18.8834 119.719 26.6037 120.381 27.4448C121.706 29.1292 122.264 29.6603 123.357 30.2772C124.215 30.7619 124.358 31.0399 124.114 31.7518L124.005 32.0715L122.019 32.071C118.606 32.0704 117.949 32.0001 117.321 31.5699C116.745 31.1755 116.218 30.4927 112.979 25.9371C111.75 24.2075 110.665 22.7333 110.402 22.4333C110.296 22.3125 110.254 22.2865 110.195 22.3052C110.075 22.3435 109.699 22.6323 109.202 23.0686L108.737 23.4765L108.737 24.9142C108.738 26.695 108.787 28.187 108.857 28.5922C108.886 28.7596 108.947 28.9703 108.993 29.0605C109.288 29.6434 109.951 30.1301 110.838 30.4134C111.347 30.576 111.517 30.7126 111.554 30.9874C111.571 31.1165 111.45 31.8753 111.398 31.9576C111.381 31.9842 109.985 32.0066 106.65 32.0337C104.051 32.0547 101.753 32.0719 101.543 32.0718L101.161 32.0715L101.102 31.8209ZM88.2632 7.70541C87.6887 7.66655 87.5065 7.62049 87.4064 7.48833C86.9854 6.93284 84.0929 1.55874 83.8148 0.815248L83.7513 0.645556L83.9114 0.500272C84.0282 0.394462 84.1875 0.308199 84.4987 0.182637L84.9258 0.0102828L85.0448 0.117474C87.3315 2.17434 87.9325 2.72329 89.5768 4.25761L89.8248 4.48901L90.2524 4.08831C92.8448 1.65936 94.6953 0 94.8116 0C94.8665 0 95.7023 0.444115 95.8278 0.539974C95.8894 0.58706 95.9398 0.646918 95.9398 0.673011C95.9398 0.755527 95.1705 2.24078 93.8182 4.76924C92.9681 6.35877 92.6632 6.95534 92.6632 7.02915C92.6632 7.09445 92.409 7.35387 92.2148 7.48687C92.0047 7.63076 91.8731 7.66868 91.4524 7.70666C91.0367 7.74425 88.825 7.74319 88.2632 7.70541Z" fill="#B92337"/>
</g>
<defs>
<clipPath id="clip0_66_113">
<rect width="147" height="40" fill="white"/>
</clipPath>
</defs>
</svg>
