<svg width="133" height="40" viewBox="0 0 133 40" fill="none" xmlns="http://www.w3.org/2000/svg">
<g clip-path="url(#clip0_66_117)">
<path fill-rule="evenodd" clip-rule="evenodd" d="M27.8435 8.12937C27.7968 5.95734 26.9033 3.89006 25.3545 2.3705C23.8056 0.850947 21.7247 0 19.5576 0C17.3905 0 15.3096 0.850947 13.7608 2.3705C12.212 3.89006 11.3185 5.95734 11.2717 8.12937L19.5576 11.456L27.8435 8.12937Z" fill="#EF7915"/>
<path d="M2.04823 15.8485C2.45901 15.8438 2.86188 15.9618 3.20563 16.1873C3.54939 16.4128 3.81849 16.7357 3.97874 17.1149C4.13899 17.4941 4.18315 17.9125 4.1056 18.3169C4.02805 18.7214 3.83229 19.0936 3.54322 19.3862C3.25415 19.6788 2.88481 19.8786 2.48216 19.9603C2.07951 20.042 1.66173 20.0017 1.28193 19.8448C0.902133 19.6878 0.577469 19.4212 0.34921 19.0788C0.12095 18.7363 -0.000594524 18.3336 2.59296e-05 17.9218C-0.00133092 17.6508 0.0505762 17.3822 0.152782 17.1314C0.254988 16.8805 0.405491 16.6523 0.595693 16.4598C0.785895 16.2672 1.01207 16.1141 1.2613 16.0093C1.51053 15.9044 1.77793 15.8497 2.04823 15.8485Z" fill="#EF7915"/>
<path opacity="0.8" d="M2.20752 5.6095V14.8885C2.97706 14.9382 3.69887 15.2797 4.22632 15.8437C4.75377 16.4076 5.04731 17.1517 5.04731 17.9248C5.04731 18.6979 4.75377 19.442 4.22632 20.0059C3.69887 20.5698 2.97706 20.9114 2.20752 20.9611V31.3426L19.5574 39.9364V12.576L2.20752 5.6095Z" fill="#1F3C90"/>
<path d="M37.0672 15.8485C36.6564 15.8438 36.2535 15.9618 35.9097 16.1873C35.5659 16.4128 35.2968 16.7357 35.1365 17.1149C34.9763 17.4941 34.9321 17.9125 35.0097 18.317C35.0872 18.7215 35.283 19.0937 35.5721 19.3863C35.8611 19.6789 36.2305 19.8788 36.6332 19.9604C37.0358 20.0421 37.4536 20.0019 37.8334 19.8449C38.2133 19.6879 38.5379 19.4213 38.7662 19.0788C38.9945 18.7364 39.116 18.3336 39.1154 17.9218C39.1167 17.6508 39.0648 17.3822 38.9626 17.1314C38.8604 16.8805 38.7099 16.6523 38.5197 16.4597C38.3295 16.2672 38.1033 16.1141 37.8541 16.0092C37.6049 15.9043 37.3375 15.8497 37.0672 15.8485Z" fill="#141414"/>
<path d="M37.0673 15.8485C37.4781 15.8438 37.8809 15.9618 38.2247 16.1873C38.5684 16.4128 38.8375 16.7357 38.9978 17.1149C39.158 17.4941 39.2022 17.9125 39.1246 18.3169C39.0471 18.7214 38.8513 19.0936 38.5623 19.3862C38.2732 19.6788 37.9039 19.8786 37.5012 19.9603C37.0986 20.042 36.6808 20.0017 36.301 19.8448C35.9212 19.6878 35.5965 19.4212 35.3683 19.0788C35.14 18.7363 35.0184 18.3336 35.0191 17.9218C35.0177 17.6508 35.0696 17.3822 35.1718 17.1313C35.274 16.8805 35.4245 16.6522 35.6147 16.4597C35.8049 16.2672 36.0311 16.1141 36.2803 16.0092C36.5296 15.9043 36.797 15.8497 37.0673 15.8485Z" fill="#EF7915"/>
<path d="M34.0679 17.9217C34.0663 17.1485 34.3594 16.4039 34.8872 15.8401C35.415 15.2763 36.1377 14.9358 36.9075 14.8884V5.6095L19.5576 12.5762V39.9366L36.9075 31.3428V20.9611C36.1366 20.9135 35.4132 20.5721 34.8852 20.0071C34.3573 19.442 34.0649 18.6959 34.0679 17.9217Z" fill="#1F3C90"/>
<path fill-rule="evenodd" clip-rule="evenodd" d="M43.1785 37.7046L45.6589 34.5718C46.0532 34.9635 46.5748 35.2001 47.1286 35.2385C47.9931 35.2385 48.4985 34.771 48.4985 33.6447V11.1365H53.5658V33.4845C53.5658 37.4512 51.5442 39.6645 47.9931 39.6645C47.0953 39.721 46.1963 39.5742 45.3628 39.2349C44.5294 38.8956 43.7828 38.3726 43.1785 37.7046Z" fill="#1F3C90"/>
<path fill-rule="evenodd" clip-rule="evenodd" d="M76.158 11.1365H81.2247V13.1432C81.6978 12.3375 82.385 11.6796 83.2096 11.2428C84.0341 10.8061 84.9635 10.6077 85.894 10.6699C86.8921 10.6149 87.8826 10.873 88.7277 11.4082C89.5729 11.9435 90.2308 12.7293 90.61 13.6565C92.079 11.5965 93.9091 10.6699 96.6948 10.6699C100.698 10.6699 102.933 13.5565 102.933 17.9765V31.2765H97.8664V18.4899C97.8664 16.4832 97.4065 15.3032 95.2784 15.3032C92.9974 15.3032 92.0787 17.3099 92.0787 19.9279V31.2762H87.012V18.4895C87.012 16.4829 86.5523 15.3029 84.4241 15.3029C82.1427 15.3029 81.2245 17.3095 81.2245 19.9276V31.2759H76.1577L76.158 11.1365Z" fill="#1F3C90"/>
<path fill-rule="evenodd" clip-rule="evenodd" d="M106.158 11.1365H111.225V13.1432C111.697 12.3368 112.384 11.6783 113.209 11.2415C114.034 10.8046 114.964 10.6067 115.894 10.6698C116.892 10.6148 117.883 10.8729 118.728 11.4081C119.573 11.9434 120.231 12.7292 120.61 13.6565C122.079 11.5965 123.909 10.6698 126.695 10.6698C130.698 10.6698 132.934 13.5565 132.934 17.9765V31.2765H127.866V18.4898C127.866 16.4832 127.408 15.3032 125.278 15.3032C122.998 15.3032 122.079 17.3098 122.079 19.9279V31.2761H117.012V18.4895C117.012 16.4828 116.553 15.3028 114.424 15.3028C112.143 15.3028 111.225 17.3095 111.225 19.9276V31.2758H106.158L106.158 11.1365Z" fill="#1F3C90"/>
<path d="M47.8396 6.40309C47.8406 5.5509 48.176 4.73333 48.7734 4.12706C49.3708 3.52079 50.1822 3.17452 51.0321 3.16309C51.8839 3.17257 52.6977 3.51845 53.2967 4.12566C53.8957 4.73288 54.2316 5.55242 54.2316 6.40642C54.2316 7.26042 53.8957 8.07996 53.2967 8.68717C52.6977 9.29439 51.8839 9.64027 51.0321 9.64975C50.1811 9.63789 49.369 9.29057 48.7715 8.68295C48.1741 8.07534 47.8393 7.2563 47.8396 6.40309Z" fill="#1F3C90"/>
<path d="M70.5971 16.7525C69.8133 15.6353 68.1222 14.9387 66.5126 14.9387C62.8824 14.9387 61.0663 18.0757 61.0663 21.1707C61.0663 24.2729 62.9226 27.4116 66.6789 27.4116C68.204 27.4116 69.8951 26.9214 70.8439 25.7625L73.9416 28.9071C72.2889 30.6864 69.5659 31.6792 66.637 31.6792C60.7763 31.6792 55.9077 27.7912 55.9077 21.1707C55.9077 14.7241 60.6952 10.6698 66.5126 10.6698C69.4009 10.6698 72.4141 11.8286 73.9806 13.7726L70.5971 16.7525Z" fill="#1F3C90"/>
</g>
<defs>
<clipPath id="clip0_66_117">
<rect width="133" height="40" fill="white"/>
</clipPath>
</defs>
</svg>
