<svg width="397" height="129" viewBox="0 0 397 129" fill="none" xmlns="http://www.w3.org/2000/svg">
<path d="M146.842 102.459C141.223 92.5971 132.448 84.9126 121.931 80.643C127.161 76.7204 131.025 71.2517 132.974 65.0116C134.923 58.7714 134.86 52.076 132.792 45.874C130.725 39.6719 126.759 34.2775 121.455 30.4549C116.152 26.6323 109.78 24.5753 103.242 24.5753C96.7046 24.5753 90.3327 26.6323 85.0292 30.4549C79.7256 34.2775 75.7593 39.6719 73.6919 45.874C71.6245 52.076 71.561 58.7714 73.5103 65.0116C75.4596 71.2517 79.3229 76.7204 84.5529 80.643C74.0358 84.9126 65.2614 92.5971 59.6422 102.459C59.294 103.019 59.0619 103.643 58.9598 104.295C58.8576 104.946 58.8875 105.611 59.0476 106.251C59.2077 106.89 59.4947 107.491 59.8916 108.018C60.2886 108.544 60.7873 108.985 61.3582 109.315C61.9291 109.645 62.5604 109.857 63.2148 109.938C63.8691 110.019 64.533 109.967 65.167 109.786C65.8011 109.606 66.3923 109.299 66.9056 108.885C67.4188 108.472 67.8437 107.959 68.1548 107.378C75.5813 94.541 88.6965 86.885 103.242 86.885C117.788 86.885 130.903 94.5451 138.329 107.378C139.004 108.462 140.073 109.241 141.312 109.551C142.55 109.861 143.861 109.677 144.966 109.039C146.072 108.4 146.886 107.356 147.236 106.129C147.586 104.901 147.445 103.585 146.842 102.459ZM81.9299 55.7363C81.9299 51.5212 83.1798 47.4007 85.5216 43.8959C87.8635 40.3911 91.192 37.6594 95.0863 36.0464C98.9806 34.4333 103.266 34.0112 107.4 34.8336C111.534 35.6559 115.332 37.6857 118.312 40.6663C121.293 43.6469 123.323 47.4443 124.145 51.5785C124.967 55.7127 124.545 59.9979 122.932 63.8922C121.319 67.7865 118.587 71.115 115.083 73.4568C111.578 75.7986 107.457 77.0486 103.242 77.0486C97.5918 77.0421 92.1747 74.7946 88.1793 70.7992C84.1839 66.8038 81.9364 61.3867 81.9299 55.7363Z" fill="#D8E7FF"/>
<path d="M68.5888 91.8611C64.2257 84.2033 57.4126 78.2366 49.2464 74.9213C53.3074 71.8756 56.3071 67.6293 57.8206 62.784C59.3342 57.9386 59.2849 52.7399 57.6796 47.9242C56.0744 43.1085 52.9946 38.9199 48.8766 35.9517C44.7585 32.9836 39.811 31.3864 34.7347 31.3864C29.6585 31.3864 24.711 32.9836 20.5929 35.9517C16.4749 38.9199 13.3951 43.1085 11.7899 47.9242C10.1846 52.7399 10.1353 57.9386 11.6489 62.784C13.1624 67.6293 16.1621 71.8756 20.2231 74.9213C12.0569 78.2366 5.24384 84.2033 0.880664 91.8611C0.610306 92.2958 0.430113 92.7804 0.350799 93.2862C0.271485 93.792 0.294667 94.3085 0.418969 94.8051C0.54327 95.3017 0.766154 95.7683 1.07437 96.177C1.38258 96.5858 1.76983 96.9284 2.2131 97.1845C2.65637 97.4406 3.14661 97.605 3.65467 97.6678C4.16273 97.7307 4.67825 97.6907 5.17056 97.5504C5.66288 97.41 6.12195 97.1721 6.52048 96.8508C6.91902 96.5294 7.24888 96.1313 7.49045 95.6799C13.2569 85.7127 23.4405 79.7681 34.7347 79.7681C46.029 79.7681 56.2126 85.7159 61.979 95.6799C62.5026 96.5218 63.333 97.127 64.2947 97.3677C65.2564 97.6084 66.274 97.4657 67.1323 96.9698C67.9907 96.4739 68.6226 95.6635 68.8944 94.7102C69.1662 93.7568 69.0566 92.7351 68.5888 91.8611ZM18.1864 55.582C18.1864 52.3091 19.157 49.1096 20.9753 46.3883C22.7937 43.6669 25.3782 41.5459 28.402 40.2934C31.4258 39.0408 34.7531 38.7131 37.9632 39.3517C41.1732 39.9902 44.1219 41.5663 46.4362 43.8806C48.7505 46.1949 50.3266 49.1435 50.9651 52.3536C51.6036 55.5637 51.2759 58.891 50.0234 61.9148C48.7709 64.9386 46.6499 67.5231 43.9285 69.3415C41.2072 71.1598 38.0077 72.1304 34.7347 72.1304C30.3474 72.1253 26.1412 70.3802 23.0389 67.2779C19.9366 64.1756 18.1915 59.9694 18.1864 55.582Z" fill="#D8E7FF"/>
<path d="M249.736 102.459C255.355 92.5971 264.13 84.9126 274.647 80.643C269.417 76.7204 265.553 71.2517 263.604 65.0116C261.655 58.7714 261.718 52.076 263.786 45.874C265.853 39.6719 269.819 34.2775 275.123 30.4549C280.427 26.6323 286.798 24.5753 293.336 24.5753C299.874 24.5753 306.245 26.6323 311.549 30.4549C316.852 34.2775 320.819 39.6719 322.886 45.874C324.954 52.076 325.017 58.7714 323.068 65.0116C321.119 71.2517 317.255 76.7204 312.025 80.643C322.542 84.9126 331.317 92.5971 336.936 102.459C337.284 103.019 337.516 103.643 337.618 104.295C337.72 104.946 337.691 105.611 337.531 106.251C337.37 106.89 337.083 107.491 336.686 108.018C336.29 108.544 335.791 108.985 335.22 109.315C334.649 109.645 334.018 109.857 333.363 109.938C332.709 110.019 332.045 109.967 331.411 109.786C330.777 109.606 330.186 109.299 329.673 108.885C329.159 108.472 328.734 107.959 328.423 107.378C320.997 94.541 307.882 86.885 293.336 86.885C278.79 86.885 265.675 94.5451 258.249 107.378C257.574 108.462 256.505 109.241 255.266 109.551C254.028 109.861 252.717 109.677 251.612 109.039C250.506 108.4 249.693 107.356 249.342 106.129C248.992 104.901 249.134 103.585 249.736 102.459ZM314.648 55.7363C314.648 51.5212 313.398 47.4007 311.056 43.8959C308.715 40.3911 305.386 37.6594 301.492 36.0464C297.598 34.4333 293.312 34.0112 289.178 34.8336C285.044 35.6559 281.247 37.6857 278.266 40.6663C275.285 43.6469 273.256 47.4443 272.433 51.5785C271.611 55.7127 272.033 59.9979 273.646 63.8922C275.259 67.7865 277.991 71.115 281.496 73.4568C285 75.7986 289.121 77.0486 293.336 77.0486C298.986 77.0421 304.403 74.7946 308.399 70.7992C312.394 66.8038 314.642 61.3867 314.648 55.7363Z" fill="#D8E7FF"/>
<path d="M327.989 91.8611C332.352 84.2033 339.166 78.2366 347.332 74.9213C343.271 71.8756 340.271 67.6293 338.757 62.784C337.244 57.9386 337.293 52.7399 338.898 47.9242C340.504 43.1085 343.584 38.9199 347.702 35.9517C351.82 32.9836 356.767 31.3864 361.843 31.3864C366.92 31.3864 371.867 32.9836 375.985 35.9517C380.103 38.9199 383.183 43.1085 384.788 47.9242C386.394 52.7399 386.443 57.9386 384.929 62.784C383.416 67.6293 380.416 71.8756 376.355 74.9213C384.521 78.2366 391.334 84.2033 395.697 91.8611C395.968 92.2958 396.148 92.7804 396.227 93.2862C396.307 93.792 396.283 94.3085 396.159 94.8051C396.035 95.3017 395.812 95.7683 395.504 96.177C395.196 96.5858 394.808 96.9284 394.365 97.1845C393.922 97.4406 393.432 97.605 392.923 97.6678C392.415 97.7307 391.9 97.6907 391.408 97.5504C390.915 97.41 390.456 97.1721 390.058 96.8508C389.659 96.5294 389.329 96.1313 389.088 95.6799C383.321 85.7127 373.138 79.7681 361.843 79.7681C350.549 79.7681 340.366 85.7159 334.599 95.6799C334.076 96.5218 333.245 97.127 332.283 97.3677C331.322 97.6084 330.304 97.4657 329.446 96.9698C328.587 96.4739 327.955 95.6635 327.684 94.7102C327.412 93.7568 327.521 92.7351 327.989 91.8611ZM378.392 55.582C378.392 52.3091 377.421 49.1096 375.603 46.3883C373.784 43.6669 371.2 41.5459 368.176 40.2934C365.152 39.0408 361.825 38.7131 358.615 39.3517C355.405 39.9902 352.456 41.5663 350.142 43.8806C347.828 46.1949 346.252 49.1435 345.613 52.3536C344.974 55.5637 345.302 58.891 346.555 61.9148C347.807 64.9386 349.928 67.5231 352.65 69.3415C355.371 71.1598 358.57 72.1304 361.843 72.1304C366.231 72.1253 370.437 70.3802 373.539 67.2779C376.642 64.1756 378.387 59.9694 378.392 55.582Z" fill="#D8E7FF"/>
<path d="M264.563 117.609C256.101 102.758 242.888 91.1861 227.05 84.7565C234.926 78.8496 240.744 70.6144 243.679 61.2174C246.614 51.8204 246.519 41.738 243.405 32.3984C240.292 23.0588 234.319 14.9355 226.333 9.17915C218.346 3.42279 208.751 0.325226 198.906 0.325226C189.061 0.325226 179.466 3.42279 171.48 9.17915C163.493 14.9355 157.52 23.0588 154.407 32.3984C151.294 41.738 151.198 51.8204 154.134 61.2174C157.069 70.6144 162.887 78.8496 170.763 84.7565C154.925 91.1861 141.712 102.758 133.25 117.609C132.726 118.452 132.376 119.392 132.222 120.373C132.068 121.354 132.113 122.356 132.354 123.319C132.596 124.282 133.028 125.187 133.626 125.98C134.223 126.772 134.974 127.437 135.834 127.934C136.694 128.43 137.644 128.749 138.63 128.871C139.615 128.993 140.615 128.915 141.57 128.643C142.524 128.371 143.415 127.91 144.188 127.286C144.961 126.663 145.6 125.891 146.069 125.016C157.252 105.685 177.002 94.1562 198.906 94.1562C220.81 94.1562 240.56 105.691 251.744 125.016C252.759 126.648 254.37 127.822 256.235 128.289C258.1 128.756 260.073 128.479 261.738 127.517C263.403 126.555 264.628 124.984 265.155 123.135C265.682 121.286 265.47 119.304 264.563 117.609ZM166.813 47.25C166.813 40.9025 168.695 34.6975 172.221 29.4197C175.748 24.1419 180.76 20.0283 186.625 17.5992C192.489 15.1701 198.942 14.5346 205.167 15.7729C211.393 17.0113 217.112 20.0679 221.6 24.5563C226.088 29.0447 229.145 34.7632 230.383 40.9888C231.622 47.2144 230.986 53.6674 228.557 59.5317C226.128 65.3961 222.014 70.4085 216.737 73.935C211.459 77.4615 205.254 79.3438 198.906 79.3438C190.397 79.3339 182.24 75.9495 176.223 69.9329C170.207 63.9163 166.822 55.7588 166.813 47.25Z" fill="#16315C"/>
</svg>
